PathFileType	3	(X/Y/Z)	C:\Users\koon_\Desktop\
DataRate	CameraRate	NumFrames	NumMarkers	Units	OrigDataRate	OrigDataStartFrame	OrigNumFrames
100.0	100.0	5	27	mm	100.0	596	4762	
Frame#	Time	get:LFHD			get:RFHD			get:LBHD			get:RBHD			get:C7			get:T10			get:CLAV			get:STRN			get:RBAK			get:LSHO			get:LUPA			get:LELB			get:LFRA			get:LWRA			get:LWRB			get:LFIN			get:RSHO			get:RUPA			get:RELB			get:RFRA			get:RWRA			get:RWRB			get:RFIN			get:LASI			get:RASI			get:LPSI			get:RPSI			
		X1	Y1	Z1	X2	Y2	Z2	X3	Y3	Z3	X4	Y4	Z4	X5	Y5	Z5	X6	Y6	Z6	X7	Y7	Z7	X8	Y8	Z8	X9	Y9	Z9	X10	Y10	Z10	X11	Y11	Z11	X12	Y12	Z12	X13	Y13	Z13	X14	Y14	Z14	X15	Y15	Z15	X16	Y16	Z16	X17	Y17	Z17	X18	Y18	Z18	X19	Y19	Z19	X20	Y20	Z20	X21	Y21	Z21	X22	Y22	Z22	X23	Y23	Z23	X24	Y24	Z24	X25	Y25	Z25	X26	Y26	Z26	X27	Y27	Z27	
596	5.95	111.84781	1556.5427	-26.160049	-29.04731	1553.6531	-34.056488	97.119316	1559.3447	-187.74457	-31.212881	1530.8975	-198.31583	68.732796	1332.8707	-214.82509	30.248003	1127.7891	-238.29773	54.98481	1283.0062	-18.10799	42.094597	1088.6422	38.425411	-21.767912	1265.2159	-241.97342	191.72116	1337.8462	-133.55078	273.16656	1197.6193	-121.92153	297.0546	1004.6408	-137.12599	300.03845	878.66095	-66.782387	273.93652	798.39594	-50.092251	322.72452	801.78876	-121.15147	338.90332	733.26111	-48.710186	-37.527081	1365.6073	-149.20126	-171.96515	1421.6038	-127.90375	-291.66986	1469.0933	-103.10512	-206.07439	1504.1461	-103.5735	-100.42047	1591.0133	-39.290108	-155.39857	1616.661	14.584074	-70.239243	1673.2623	12.315366	160.68512	890.94617	-4.578136	-105.92693	875.70526	-5.8264093	69.681114	944.10229	-221.25609	-19.776812	942.36615	-223.47769
597	5.96	111.55337	1556.7157	-26.411306	-29.335836	1553.722	-34.381107	96.974007	1559.3129	-187.98082	-31.52788	1531.4364	-200.4765	68.719765	1333.0654	-215.01019	30.143152	1127.9546	-238.44777	54.937733	1282.9797	-18.154367	41.960564	1088.6116	38.296726	-21.845793	1265.515	-242.0235	191.65552	1337.8523	-133.56233	273.06232	1197.6237	-121.96226	296.96841	1004.6555	-137.2093	299.89954	878.67145	-66.871521	273.76181	798.36835	-50.223751	322.62564	801.79718	-121.27299	338.77115	733.24158	-48.846931	-37.392731	1365.7598	-149.01079	-171.00267	1422.1947	-126.46243	-290.1283	1470.7665	-101.79136	-203.96634	1504.7595	-100.02825	-98.026688	1588.3163	-32.317631	-152.68968	1612.7457	22.189644	-66.04834	1667.2938	23.484299	160.58981	890.9613	-4.6848054	-106.06611	875.742	-6.1616716	69.676147	944.10455	-221.39032	-19.734398	942.37598	-223.69359
598	5.97	111.33175	1556.8995	-26.657942	-29.541811	1553.8364	-34.703411	96.882172	1559.2635	-188.21809	-31.684753	1531.0525	-200.00903	68.650826	1333.1744	-214.87387	30.016693	1128.0851	-238.59395	54.869274	1282.9609	-18.127577	41.809898	1088.5691	38.223263	-21.948824	1265.7866	-241.97305	191.59023	1337.8743	-133.55991	272.97879	1197.6295	-122.01671	296.87701	1004.6378	-137.30339	299.77026	878.65588	-66.981155	273.63037	798.37201	-50.326038	322.48492	801.80585	-121.38993	338.58923	733.21283	-49.008724	-37.262466	1365.9226	-148.79495	-170.0896	1422.6935	-124.92931	-288.66913	1472.3995	-100.28468	-201.83386	1505.0875	-96.56356	-95.447411	1585.0388	-25.020399	-149.96329	1608.5903	29.558092	-62.031498	1660.9308	33.904152	160.46112	890.99243	-4.7562318	-106.14725	875.76746	-6.3261962	69.735725	944.14069	-221.55475	-19.682909	942.38934	-223.87532
599	5.98	111.14314	1557.0311	-26.8624	-29.77857	1553.8138	-35.055637	96.759354	1559.2279	-188.41896	-31.74999	1530.9987	-200.30553	68.600822	1333.3385	-214.97192	29.880068	1128.2472	-238.74806	54.838554	1282.9335	-18.188078	41.715431	1088.5541	38.16053	-22.084082	1266.1283	-242.11513	191.52708	1337.9133	-133.56947	272.86066	1197.6184	-122.08948	296.70349	1004.6699	-137.42264	299.60742	878.62476	-67.146187	273.47443	798.3609	-50.526173	322.32123	801.802	-121.56631	338.42062	733.18359	-49.141205	-37.188427	1366.0837	-148.52061	-169.22945	1423.1753	-123.34569	-287.19977	1474.0043	-98.796455	-199.66682	1505.2263	-93.104996	-92.903915	1581.38	-18.753532	-147.21242	1603.9189	36.357395	-58.145893	1654.2397	43.511246	160.36809	891.01599	-4.8434305	-106.24639	875.78412	-6.5428033	69.803841	944.19928	-221.74997	-19.624342	942.42853	-224.09659
600	5.99	110.99249	1557.1503	-27.082926	-30.186832	1553.6921	-35.572094	96.679298	1559.1503	-188.63632	-31.865236	1530.902	-200.55829	68.54303	1333.458	-214.92664	29.692987	1128.3912	-238.86366	54.806927	1282.895	-18.125113	41.59351	1088.5409	38.059143	-22.223803	1266.3699	-242.07578	191.43454	1337.9332	-133.57602	272.76987	1197.6525	-122.17121	296.52203	1004.6592	-137.59526	299.4425	878.6308	-67.323364	273.26541	798.36664	-50.721336	322.1373	801.79401	-121.74155	338.21878	733.17627	-49.379757	-37.077084	1366.2277	-148.2984	-168.38997	1423.6047	-121.76602	-285.65482	1475.5038	-97.2257	-197.58638	1505.1342	-89.847618	-90.522308	1577.515	-13.330789	-144.54874	1599.0752	42.761738	-54.338051	1647.2627	52.485847	160.23531	891.01709	-4.8992534	-106.36566	875.8399	-6.8521085	69.908821	944.21252	-221.88934	-19.592436	942.43396	-224.23676
